<?xml version="1.0" encoding="utf-8"?>
<!-- Generator: Adobe Illustrator 16.0.0, SVG Export Plug-In . SVG Version: 6.00 Build 0)  -->
<!DOCTYPE svg PUBLIC "-//W3C//DTD SVG 1.1//EN" "http://www.w3.org/Graphics/SVG/1.1/DTD/svg11.dtd">
<svg version="1.1" id="Capa_1" xmlns="http://www.w3.org/2000/svg" xmlns:xlink="http://www.w3.org/1999/xlink" x="0px" y="0px"
	 width="35px" height="35px" viewBox="0 0 35 35" enable-background="new 0 0 35 35" xml:space="preserve">
<g>
	<path fill="#FFFFFF" d="M0,17.451C0,7.813,7.81,0,17.456,0c9.636,0,17.447,7.813,17.447,17.451c0,9.642-7.812,17.451-17.447,17.451
		C7.81,34.901,0,27.093,0,17.451z"/>
	<path fill="#000000" d="M21.875,17.458h-2.892V27.77h-4.292V17.458h-2.037v-3.647h2.038v-2.357c0-1.682,0.806-4.323,4.329-4.323
		l3.177,0.011v3.538h-2.305c-0.376,0-0.91,0.19-0.91,0.992v2.146h3.264L21.875,17.458z"/>
</g>
</svg>
