<?xml version="1.0" encoding="utf-8"?>
<!-- Generator: Adobe Illustrator 23.0.0, SVG Export Plug-In . SVG Version: 6.00 Build 0)  -->
<svg version="1.1" id="Capa_1" xmlns="http://www.w3.org/2000/svg" xmlns:xlink="http://www.w3.org/1999/xlink" x="0px" y="0px"
	 viewBox="0 0 35 35" style="enable-background:new 0 0 35 35;" xml:space="preserve">
<style type="text/css">
	.st0{fill:#FFFFFF;}
</style>
<path class="st0" d="M0,17.5C0,7.8,7.8,0,17.5,0c9.6,0,17.4,7.8,17.4,17.5c0,9.6-7.8,17.5-17.4,17.5C7.8,34.9,0,27.1,0,17.5z"/>
<g>
	<polygon points="17.5,6.2 17.5,6.2 17.5,6.2 	"/>
	<path d="M28.6,12.8c-0.1-1.2-0.2-2-0.5-2.7c-0.3-0.7-0.7-1.4-1.3-2c-0.6-0.6-1.2-1-2-1.3c-0.7-0.3-1.5-0.5-2.7-0.5
		c-1.2-0.1-1.6-0.1-4.6-0.1c-3.1,0-3.4,0-4.6,0.1c-1.2,0.1-2,0.2-2.7,0.5c-0.7,0.3-1.4,0.7-2,1.3c-0.6,0.6-1,1.2-1.3,2
		c-0.3,0.7-0.5,1.5-0.5,2.7c-0.1,1.2-0.1,1.6-0.1,4.6c0,3.1,0,3.4,0.1,4.6c0.1,1.2,0.2,2,0.5,2.7c0.3,0.7,0.7,1.4,1.3,2
		c0.6,0.6,1.2,1,2,1.3c0.7,0.3,1.5,0.5,2.7,0.5c1.2,0.1,1.6,0.1,4.6,0.1s3.4,0,4.6-0.1c1.2-0.1,2-0.2,2.7-0.5
		c1.5-0.6,2.7-1.8,3.3-3.3c0.3-0.7,0.5-1.5,0.5-2.7c0.1-1.2,0.1-1.6,0.1-4.6S28.7,14,28.6,12.8z M26.6,22c0,1.1-0.2,1.7-0.4,2.1
		c-0.4,1-1.2,1.8-2.1,2.1c-0.4,0.2-1,0.3-2.1,0.4c-1.2,0.1-1.5,0.1-4.5,0.1s-3.4,0-4.5-0.1c-1.1,0-1.7-0.2-2.1-0.4
		c-0.5-0.2-0.9-0.5-1.3-0.8c-0.4-0.4-0.7-0.8-0.8-1.3c-0.2-0.4-0.3-1-0.4-2.1c-0.1-1.2-0.1-1.5-0.1-4.5s0-3.4,0.1-4.5
		c0-1.1,0.2-1.7,0.4-2.1c0.2-0.5,0.5-0.9,0.8-1.3c0.4-0.4,0.8-0.7,1.3-0.8c0.4-0.2,1-0.3,2.1-0.4c1.2-0.1,1.5-0.1,4.5-0.1l0,0
		c3,0,3.4,0,4.5,0.1c1.1,0,1.7,0.2,2.1,0.4c0.5,0.2,0.9,0.5,1.3,0.8c0.4,0.4,0.7,0.8,0.8,1.3c0.2,0.4,0.3,1,0.4,2.1
		c0.1,1.2,0.1,1.5,0.1,4.5S26.6,20.8,26.6,22z"/>
	<path d="M17.5,11.7c-3.2,0-5.8,2.6-5.8,5.8c0,3.2,2.6,5.8,5.8,5.8s5.8-2.6,5.8-5.8C23.2,14.3,20.6,11.7,17.5,11.7z M17.5,21.2
		c-2.1,0-3.7-1.7-3.7-3.7s1.7-3.7,3.7-3.7c2.1,0,3.7,1.7,3.7,3.7C21.2,19.5,19.5,21.2,17.5,21.2z"/>
	<circle cx="23.4" cy="11.5" r="1.3"/>
</g>
</svg>
