<?xml version="1.0" encoding="UTF-8" standalone="no"?>
<svg
   xmlns:dc="http://purl.org/dc/elements/1.1/"
   xmlns:cc="http://creativecommons.org/ns#"
   xmlns:rdf="http://www.w3.org/1999/02/22-rdf-syntax-ns#"
   xmlns:svg="http://www.w3.org/2000/svg"
   xmlns="http://www.w3.org/2000/svg"
   xmlns:sodipodi="http://sodipodi.sourceforge.net/DTD/sodipodi-0.dtd"
   xmlns:inkscape="http://www.inkscape.org/namespaces/inkscape"
   viewBox="0 0 35 35"
   version="1.1"
   id="svg22"
   sodipodi:docname="Telegram_logo-ORIGINAL.svg"
   inkscape:version="0.92.4 (5da689c313, 2019-01-14)"
   inkscape:export-filename="C:\Users\Dell\Documents\Diseños P12\Telegram_logo-ORIGINAL.png"
   inkscape:export-xdpi="96"
   inkscape:export-ydpi="96"
   width="35"
   height="35">
  <metadata
     id="metadata26">
    <rdf:RDF>
      <cc:Work
         rdf:about="">
        <dc:format>image/svg+xml</dc:format>
        <dc:type
           rdf:resource="http://purl.org/dc/dcmitype/StillImage" />
        <dc:title></dc:title>
      </cc:Work>
    </rdf:RDF>
  </metadata>
  <sodipodi:namedview
     pagecolor="#ffffff"
     bordercolor="#666666"
     borderopacity="1"
     objecttolerance="10"
     gridtolerance="10"
     guidetolerance="10"
     inkscape:pageopacity="0"
     inkscape:pageshadow="2"
     inkscape:window-width="1920"
     inkscape:window-height="1001"
     id="namedview24"
     showgrid="false"
     inkscape:zoom="11.125147"
     inkscape:cx="17.388328"
     inkscape:cy="29.869062"
     inkscape:window-x="-9"
     inkscape:window-y="-9"
     inkscape:window-maximized="1"
     inkscape:current-layer="svg22" />
  <defs
     id="defs12">
    <linearGradient
       id="a"
       x1="0.667"
       x2="0.417"
       y1="0.167"
       y2="0.75">
      <stop
         offset="0"
         stop-color="#37aee2"
         id="stop2" />
      <stop
         offset="1"
         stop-color="#1e96c8"
         id="stop4" />
    </linearGradient>
    <linearGradient
       id="b"
       x1="0.66000003"
       x2="0.85100001"
       y1="0.43700001"
       y2="0.80199999">
      <stop
         offset="0"
         stop-color="#eff7fc"
         id="stop7" />
      <stop
         offset="1"
         stop-color="#fff"
         id="stop9" />
    </linearGradient>
  </defs>
  <circle
     cx="17.5"
     cy="17.5"
     id="circle14"
     style="fill:#ffffff;stroke-width:0.14583333"
     r="17.5" />
  <g
     inkscape:groupmode="layer"
     id="layer1"
     inkscape:label="NEGRO"
     style="display:inline"
     transform="translate(0,-205)">
    <g
       style="fill:#000000"
       id="g844"
       transform="matrix(0.46953563,0,0,0.46953563,5.0919442,209.91532)">
      <path
         id="path833"
         d="M 46.137,6.552 C 45.387,5.916 44.209,5.825 42.991,6.314 H 42.989 C 41.708,6.828 6.728,21.832 5.304,22.445 c -0.259,0.09 -2.521,0.934 -2.288,2.814 0.208,1.695 2.026,2.397 2.248,2.478 l 8.893,3.045 c 0.59,1.964 2.765,9.21 3.246,10.758 0.3,0.965 0.789,2.233 1.646,2.494 0.752,0.29 1.5,0.025 1.984,-0.355 l 5.437,-5.043 8.777,6.845 0.209,0.125 c 0.596,0.264 1.167,0.396 1.712,0.396 0.421,0 0.825,-0.079 1.211,-0.237 1.315,-0.54 1.841,-1.793 1.896,-1.935 L 46.831,9.753 c 0.4,-1.82 -0.156,-2.746 -0.694,-3.201 z M 22,32 19,40 16,30 39,13 Z"
         inkscape:connector-curvature="0" />
    </g>
  </g>
</svg>
