<?xml version="1.0" encoding="utf-8"?>
<!-- Generator: Adobe Illustrator 16.0.0, SVG Export Plug-In . SVG Version: 6.00 Build 0)  -->
<!DOCTYPE svg PUBLIC "-//W3C//DTD SVG 1.1//EN" "http://www.w3.org/Graphics/SVG/1.1/DTD/svg11.dtd">
<svg version="1.1" id="Capa_1" xmlns="http://www.w3.org/2000/svg" xmlns:xlink="http://www.w3.org/1999/xlink" x="0px" y="0px"
	 width="35px" height="35px" viewBox="0 0 35 35" enable-background="new 0 0 35 35" xml:space="preserve">
<circle fill="#000000" cx="17.45" cy="17.449" r="17"/>
<path fill="#FFFFFF" d="M17.441,0C7.816,0,0,7.815,0,17.444c0,9.638,7.815,17.454,17.441,17.454c9.641,0,17.458-7.816,17.458-17.454
	C34.9,7.804,27.082,0,17.441,0L17.441,0z M26.136,13.537l0.01,0.553c0,5.678-4.324,12.224-12.229,12.224
	c-2.426,0-4.68-0.711-6.582-1.938c0.331,0.044,0.677,0.065,1.023,0.065c2.019,0,3.867-0.692,5.336-1.842
	c-1.882-0.035-3.458-1.281-4.013-2.986c0.263,0.056,0.533,0.079,0.812,0.079c0.392,0,0.776-0.054,1.129-0.148
	c-1.961-0.397-3.442-2.131-3.442-4.208v-0.054c0.576,0.321,1.235,0.513,1.938,0.533c-1.151-0.767-1.904-2.088-1.904-3.569
	c0-0.789,0.209-1.533,0.586-2.162c2.105,2.598,5.279,4.303,8.849,4.484c-0.08-0.31-0.105-0.64-0.105-0.98
	c0-2.365,1.915-4.292,4.289-4.292c1.234,0,2.354,0.523,3.142,1.352c0.97-0.19,1.896-0.542,2.727-1.033
	c-0.32,1.003-1.001,1.841-1.895,2.375c0.874-0.106,1.702-0.341,2.47-0.682C27.7,12.173,26.966,12.929,26.136,13.537L26.136,13.537z"
	/>
</svg>
