<?xml version="1.0" encoding="utf-8"?>
<!-- Generator: Adobe Illustrator 16.0.0, SVG Export Plug-In . SVG Version: 6.00 Build 0)  -->
<!DOCTYPE svg PUBLIC "-//W3C//DTD SVG 1.1//EN" "http://www.w3.org/Graphics/SVG/1.1/DTD/svg11.dtd">
<svg version="1.1" id="Capa_1" xmlns="http://www.w3.org/2000/svg" xmlns:xlink="http://www.w3.org/1999/xlink" x="0px" y="0px"
	 width="35px" height="35px" viewBox="0 0 35 35" enable-background="new 0 0 35 35" xml:space="preserve">
<g>
	<path fill="#FFFFFF" d="M0,17.451C0,7.813,7.81,0,17.456,0c9.636,0,17.446,7.813,17.446,17.451c0,9.642-7.812,17.451-17.446,17.451
		C7.81,34.9,0,27.093,0,17.451z"/>
	<path d="M29.254,11.574c-0.282-1.062-1.113-1.899-2.169-2.183C25.172,8.875,17.5,8.875,17.5,8.875s-7.672,0-9.585,0.516
		c-1.056,0.284-1.887,1.121-2.169,2.183c-0.513,1.926-0.513,5.944-0.513,5.944s0,4.018,0.513,5.942
		c0.282,1.063,1.113,1.865,2.169,2.149c1.913,0.516,9.585,0.516,9.585,0.516s7.672,0,9.585-0.516
		c1.056-0.284,1.887-1.086,2.169-2.149c0.513-1.925,0.513-5.942,0.513-5.942S29.767,13.5,29.254,11.574z"/>
	<polygon fill="#FFFFFF" points="14.991,21.165 14.991,13.87 21.402,17.518 14.991,21.165 	"/>
</g>
</svg>
